<?xml version="1.0" standalone="no"?><!DOCTYPE svg PUBLIC "-//W3C//DTD SVG 1.1//EN" "http://www.w3.org/Graphics/SVG/1.1/DTD/svg11.dtd"><svg t="1529997776803" class="icon" style="" viewBox="0 0 1024 1024" version="1.1" xmlns="http://www.w3.org/2000/svg" p-id="4279" xmlns:xlink="http://www.w3.org/1999/xlink" width="200" height="200"><defs><style type="text/css"></style></defs><path d="M601.726406 544.629965a31.99926 31.99926 0 0 0-45.438949 0l-45.438949 45.43895-45.43895-45.43895a31.99926 31.99926 0 0 0-45.438949 45.43895l45.438949 45.438949-45.438949 45.438949a31.99926 31.99926 0 1 0 45.438949 45.438949l45.43895-45.438949 45.438949 45.438949a31.99926 31.99926 0 0 0 45.438949-45.438949L558.207412 634.867879l45.43895-45.43895a31.99926 31.99926 0 0 0-1.919956-44.798964z" p-id="4280"></path><path d="M819.321374 71.040917h-127.99704L670.204823 18.562131A31.99926 31.99926 0 0 0 641.405488 0.00256H380.931512a31.99926 31.99926 0 0 0-29.439319 18.559571l-23.679453 51.838801h-127.99704A91.517884 91.517884 0 0 0 110.217772 159.99886v773.742107A91.517884 91.517884 0 0 0 203.655611 1023.97888h615.665763a91.517884 91.517884 0 0 0 93.437839-88.957942V159.99886a91.517884 91.517884 0 0 0-93.437839-88.957943zM401.411038 64.00108H622.205932l47.358905 104.317588H354.052134z m447.989641 869.739887a27.519364 27.519364 0 0 1-29.43932 24.959423H203.655611a27.519364 27.519364 0 0 1-29.439319-24.959423V159.99886a27.519364 27.519364 0 0 1 29.439319-25.599408H302.213332l-23.679452 52.478786a31.99926 31.99926 0 0 0 23.679452 45.43895h415.350395a31.99926 31.99926 0 0 0 29.43932-45.43895l-23.679453-52.478786h95.99778a27.519364 27.519364 0 0 1 29.439319 25.599408z" p-id="4281"></path></svg>